<svg width="1280" height="320" viewBox="0 0 1280 320" xmlns="http://www.w3.org/2000/svg" role="img" aria-label="Jay Lee">
  <defs>
    <pattern id="dots" width="16" height="16" patternUnits="userSpaceOnUse">
      <rect x="0" y="0" width="1" height="1" fill="#1F1F1F"/>
    </pattern>
  </defs>

  <rect width="1280" height="320" fill="#0A0A0A"/>
  <rect width="1280" height="320" fill="url(#dots)"/>

  <!-- corner brackets -->
  <g fill="#F5F5F5">
    <rect x="32" y="32" width="40" height="2"/>
    <rect x="32" y="32" width="2" height="40"/>
    <rect x="1208" y="32" width="40" height="2"/>
    <rect x="1246" y="32" width="2" height="40"/>
    <rect x="32" y="286" width="40" height="2"/>
    <rect x="32" y="248" width="2" height="40"/>
    <rect x="1208" y="286" width="40" height="2"/>
    <rect x="1246" y="248" width="2" height="40"/>
  </g>

  <!-- top tag -->
  <g fill="#F5F5F5">
    <rect x="56" y="64" width="20" height="2"/>
    <rect x="80" y="64" width="20" height="2"/>
    <rect x="104" y="64" width="20" height="2"/>
    <rect x="128" y="64" width="6" height="2"/>
  </g>
  <text x="56" y="92" fill="#888888" font-family="'Courier New', Menlo, monospace" font-size="12" letter-spacing="3">&gt; ./digitaldna01.init</text>

  <!-- big monospace title with pixel underline -->
  <text x="56" y="190" fill="#F5F5F5" font-family="'Courier New', Menlo, monospace" font-size="92" font-weight="700" letter-spacing="6">JAY LEE</text>

  <!-- decorative pixel blocks above title -->
  <g fill="#F5F5F5">
    <rect x="56" y="124" width="6" height="6"/>
    <rect x="68" y="124" width="6" height="6"/>
    <rect x="80" y="124" width="6" height="6"/>
    <rect x="92" y="124" width="6" height="6"/>
    <rect x="104" y="124" width="2" height="6"/>
  </g>

  <!-- pixel underline under name -->
  <g fill="#F5F5F5">
    <rect x="56" y="208" width="120" height="2"/>
    <rect x="180" y="208" width="60" height="2"/>
    <rect x="244" y="208" width="20" height="2"/>
  </g>

  <!-- subtitle -->
  <text x="56" y="240" fill="#B5B5B5" font-family="'Courier New', Menlo, monospace" font-size="13" letter-spacing="4" font-weight="700">APPLIED  AI   ·   RESEARCH  ENGINEERING   ·   INTERFACES</text>
  <text x="56" y="266" fill="#666666" font-family="'Courier New', Menlo, monospace" font-size="12" letter-spacing="1">building systems that translate technical ideas into practical software.</text>

  <!-- right-side stat panel -->
  <g font-family="'Courier New', Menlo, monospace" font-size="13" letter-spacing="2" fill="#F5F5F5">
    <text x="820" y="98">[ ROLE      ·  BUILDER     ]</text>
    <text x="820" y="124">[ LOCATION  ·  BOSTON, MA  ]</text>
    <text x="820" y="150">[ FOCUS     ·  AI · QUANTUM]</text>
    <text x="820" y="176">[ EDU       ·  BU · CS     ]</text>
  </g>

  <!-- pixel bar (status) -->
  <text x="820" y="210" fill="#888888" font-family="'Courier New', Menlo, monospace" font-size="13" letter-spacing="2">[ STATUS    ·</text>
  <g fill="#F5F5F5">
    <rect x="978" y="200" width="10" height="10"/>
    <rect x="992" y="200" width="10" height="10"/>
    <rect x="1006" y="200" width="10" height="10"/>
    <rect x="1020" y="200" width="10" height="10"/>
    <rect x="1034" y="200" width="10" height="10"/>
    <rect x="1048" y="200" width="10" height="10"/>
    <rect x="1062" y="200" width="10" height="10"/>
  </g>
  <g fill="#333333">
    <rect x="1076" y="200" width="10" height="10"/>
    <rect x="1090" y="200" width="10" height="10"/>
  </g>
  <text x="1108" y="210" fill="#888888" font-family="'Courier New', Menlo, monospace" font-size="13" letter-spacing="2">SHIPPING  ]</text>

  <!-- footer line -->
  <rect x="56" y="288" width="1168" height="1" fill="#222"/>
  <text x="56" y="306" fill="#555555" font-family="'Courier New', Menlo, monospace" font-size="11" letter-spacing="3">[ DIGITALDNA01 ]</text>
  <text x="1224" y="306" fill="#555555" font-family="'Courier New', Menlo, monospace" font-size="11" letter-spacing="3" text-anchor="end">v · 2026</text>
</svg>
