<svg width="400" height="400" viewBox="0 0 400 400" xmlns="http://www.w3.org/2000/svg" role="img" aria-label="Quantum">
  <defs>
    <pattern id="qDots" width="16" height="16" patternUnits="userSpaceOnUse">
      <rect x="0" y="0" width="1" height="1" fill="#1F1F1F"/>
    </pattern>
  </defs>

  <rect width="400" height="400" fill="#0A0A0A"/>
  <rect width="400" height="400" fill="url(#qDots)"/>

  <!-- corner brackets -->
  <g fill="#F5F5F5">
    <rect x="20" y="20" width="28" height="2"/>
    <rect x="20" y="20" width="2" height="28"/>
    <rect x="352" y="20" width="28" height="2"/>
    <rect x="378" y="20" width="2" height="28"/>
    <rect x="20" y="378" width="28" height="2"/>
    <rect x="20" y="352" width="2" height="28"/>
    <rect x="352" y="378" width="28" height="2"/>
    <rect x="378" y="352" width="2" height="28"/>
  </g>

  <!-- index + title -->
  <text x="36" y="62" fill="#888888" font-family="'Courier New', Menlo, monospace" font-size="11" letter-spacing="3">[ 03 ]</text>
  <text x="36" y="100" fill="#F5F5F5" font-family="'Courier New', Menlo, monospace" font-size="32" font-weight="700" letter-spacing="4">QUANTUM</text>
  <rect x="36" y="112" width="40" height="2" fill="#F5F5F5"/>

  <!-- Bloch sphere visualization (centered at 200, 240) -->
  <!-- equator (dashed pixel ellipse) -->
  <g fill="#F5F5F5" opacity="0.6">
    <rect x="118" y="240" width="6" height="2"/>
    <rect x="130" y="244" width="6" height="2"/>
    <rect x="144" y="248" width="6" height="2"/>
    <rect x="160" y="250" width="6" height="2"/>
    <rect x="178" y="252" width="6" height="2"/>
    <rect x="200" y="252" width="6" height="2"/>
    <rect x="218" y="252" width="6" height="2"/>
    <rect x="236" y="250" width="6" height="2"/>
    <rect x="252" y="248" width="6" height="2"/>
    <rect x="266" y="244" width="6" height="2"/>
    <rect x="278" y="240" width="6" height="2"/>

    <rect x="118" y="240" width="6" height="2"/>
    <rect x="130" y="236" width="6" height="2"/>
    <rect x="144" y="232" width="6" height="2"/>
    <rect x="160" y="230" width="6" height="2"/>
    <rect x="178" y="228" width="6" height="2"/>
    <rect x="200" y="228" width="6" height="2"/>
    <rect x="218" y="228" width="6" height="2"/>
    <rect x="236" y="230" width="6" height="2"/>
    <rect x="252" y="232" width="6" height="2"/>
    <rect x="266" y="236" width="6" height="2"/>
  </g>

  <!-- outer sphere outline (pixel dashed circle) -->
  <g fill="#F5F5F5">
    <!-- top -->
    <rect x="196" y="158" width="8" height="2"/>
    <rect x="178" y="162" width="6" height="2"/>
    <rect x="216" y="162" width="6" height="2"/>
    <rect x="160" y="170" width="6" height="2"/>
    <rect x="234" y="170" width="6" height="2"/>
    <rect x="146" y="180" width="6" height="2"/>
    <rect x="248" y="180" width="6" height="2"/>
    <rect x="134" y="194" width="6" height="2"/>
    <rect x="260" y="194" width="6" height="2"/>
    <rect x="126" y="208" width="6" height="2"/>
    <rect x="268" y="208" width="6" height="2"/>
    <rect x="120" y="224" width="6" height="2"/>
    <rect x="274" y="224" width="6" height="2"/>
    <!-- side -->
    <rect x="118" y="240" width="6" height="2"/>
    <rect x="276" y="240" width="6" height="2"/>
    <!-- bottom -->
    <rect x="120" y="256" width="6" height="2"/>
    <rect x="274" y="256" width="6" height="2"/>
    <rect x="126" y="272" width="6" height="2"/>
    <rect x="268" y="272" width="6" height="2"/>
    <rect x="134" y="286" width="6" height="2"/>
    <rect x="260" y="286" width="6" height="2"/>
    <rect x="146" y="300" width="6" height="2"/>
    <rect x="248" y="300" width="6" height="2"/>
    <rect x="160" y="310" width="6" height="2"/>
    <rect x="234" y="310" width="6" height="2"/>
    <rect x="178" y="318" width="6" height="2"/>
    <rect x="216" y="318" width="6" height="2"/>
    <rect x="196" y="322" width="8" height="2"/>
  </g>

  <!-- vertical axis -->
  <g fill="#F5F5F5" opacity="0.5">
    <rect x="199" y="158" width="2" height="6"/>
    <rect x="199" y="170" width="2" height="6"/>
    <rect x="199" y="182" width="2" height="6"/>
    <rect x="199" y="194" width="2" height="6"/>
    <rect x="199" y="206" width="2" height="6"/>
    <rect x="199" y="218" width="2" height="6"/>
    <rect x="199" y="230" width="2" height="6"/>
    <rect x="199" y="242" width="2" height="6"/>
    <rect x="199" y="254" width="2" height="6"/>
    <rect x="199" y="266" width="2" height="6"/>
    <rect x="199" y="278" width="2" height="6"/>
    <rect x="199" y="290" width="2" height="6"/>
    <rect x="199" y="302" width="2" height="6"/>
    <rect x="199" y="314" width="2" height="6"/>
  </g>

  <!-- state vector (arrow from center going up-right) -->
  <g fill="#F5F5F5">
    <rect x="200" y="240" width="4" height="4"/>
    <rect x="208" y="232" width="4" height="4"/>
    <rect x="216" y="224" width="4" height="4"/>
    <rect x="224" y="216" width="4" height="4"/>
    <rect x="232" y="208" width="4" height="4"/>
    <rect x="240" y="200" width="4" height="4"/>
    <!-- arrow head -->
    <rect x="240" y="196" width="8" height="2"/>
    <rect x="244" y="200" width="2" height="6"/>
  </g>

  <!-- |0⟩ and |1⟩ labels -->
  <text x="200" y="148" fill="#F5F5F5" font-family="'Courier New', Menlo, monospace" font-size="14" font-weight="700" text-anchor="middle">|0⟩</text>
  <text x="200" y="340" fill="#F5F5F5" font-family="'Courier New', Menlo, monospace" font-size="14" font-weight="700" text-anchor="middle">|1⟩</text>

  <!-- caption -->
  <text x="36" y="356" fill="#666666" font-family="'Courier New', Menlo, monospace" font-size="10" letter-spacing="3">QUBITS · SIMULATION · SUPERPOSITION</text>
</svg>
